<svg viewBox="0 0 17 68" fill="none" xmlns="http://www.w3.org/2000/svg">
  <path d="M17 28.3587C17 26.3022 16.1016 24.6002 14.9959 23.0401C14.1667 21.8345 13.2683 20.6999 12.439 19.4943C11.748 18.5015 11.3333 17.3669 11.3333 16.0904C11.4024 10.9846 11.3333 0.276464 11.3333 -0.078109C11.3333 -0.078109 11.5407 -1 8.43089 -1C5.45935 -1 5.59756 -0.078109 5.59756 -0.078109C5.59756 0.914697 5.59756 1.9075 5.59756 2.90031C5.59756 7.43885 5.59756 12.0483 5.59756 16.5868C5.59756 17.7215 5.11382 18.6434 4.56098 19.4943C3.45528 21.1254 2.28049 22.6855 1.1748 24.3875C0.345528 25.593 0 26.9404 0 28.3587C0 40.4142 0 52.5406 0 64.5961C0 66.0144 0.345528 67.2199 1.86585 68H15.1341C16.5854 67.2199 17 65.9435 17 64.5252C17 52.4697 17 40.4142 17 28.3587ZM5.11382 24.6002C4.07724 26.3022 3.73171 28.1459 3.73171 30.2025C3.86992 36.6557 3.93902 43.1799 3.86992 49.6331C3.80081 54.1716 3.38618 58.7102 3.10976 63.3196C3.10976 63.6033 3.04065 63.8869 2.90244 64.1706C2.76423 62.6105 2.62602 60.9794 2.4878 59.4193C2.07317 51.7605 1.93496 44.0308 2.00407 36.3011C2.07317 34.0319 2.14228 31.6917 2.21138 29.4224C2.28049 27.8623 2.76423 26.5149 3.52439 25.2384C4.63008 23.4656 6.01219 22.0473 7.53252 20.629C6.77236 21.9764 5.94309 23.2528 5.11382 24.6002Z"/>
</svg>
