
<svg xmlns="http://www.w3.org/2000/svg" viewBox="0 0 511.999 511.999">
	
		<path d="M324.083,2.849c-6.716-4.858-16.098-3.352-20.956,3.361l-25.975,35.9c-20.571,28.432-32.877,61.954-35.589,96.941
			c-0.527,6.794-0.682,13.589-0.482,20.357c4.848-0.846,9.833-1.29,14.919-1.29c5.122,0,10.141,0.45,15.021,1.307
			c-1.267-35.017,9.01-70.091,30.448-99.72l25.975-35.9C332.303,17.09,330.798,7.707,324.083,2.849z"/>
		
		<path d="M356.754,97.772c-19.038,2.337-39.293,12.185-55.979,28.871c-10.408,10.408-18.148,22.206-23.072,34.231
			c17.29,4.478,32.499,14.179,43.838,27.311c8.11-4.592,15.943-10.491,23.114-17.663c16.685-16.686,26.534-36.941,28.87-55.979
			C374.719,104.815,366.482,96.578,356.754,97.772z"/>
	
		<path d="M211.224,126.642c-16.686-16.686-36.941-26.534-55.979-28.871c-9.728-1.194-17.965,7.043-16.771,16.771
			c2.337,19.038,12.185,39.293,28.87,55.979c7.172,7.171,15.004,13.071,23.114,17.663c11.34-13.131,26.549-22.832,43.838-27.311
			C229.372,148.848,221.632,137.05,211.224,126.642z"/>
	
		<path d="M112.851,188.133c-31.191,0-56.567,25.375-56.567,56.566c0,31.191,25.376,56.567,56.567,56.567
			c0.479,0,0.952-0.024,1.428-0.036c12.008-16.569,29.731-28.736,50.254-33.58c3.13-7.02,4.884-14.782,4.884-22.951
			C169.417,213.508,144.042,188.133,112.851,188.133z"/>
	
		<path d="M256,188.133c-31.191,0-56.567,25.375-56.567,56.566c0,8.169,1.755,15.932,4.884,22.951
			c20.523,4.843,38.246,17.011,50.254,33.58c0.476,0.012,0.95,0.036,1.429,0.036c0.479,0,0.953-0.024,1.429-0.036
			c12.008-16.569,29.731-28.736,50.254-33.58c3.13-7.02,4.884-14.782,4.884-22.951C312.567,213.508,287.191,188.133,256,188.133z"/>
	
		<path d="M399.149,188.133c-31.191,0-56.566,25.375-56.566,56.566c0,8.169,1.754,15.931,4.884,22.951
			c20.523,4.844,38.246,17.011,50.253,33.58c0.476,0.012,0.949,0.036,1.428,0.036c31.192,0.001,56.568-25.376,56.568-56.567
			C455.716,213.508,430.34,188.133,399.149,188.133z"/>
	
		<path d="M184.425,295.356c-31.191,0-56.566,25.375-56.566,56.566c0,30.814,24.769,55.935,55.44,56.539
			c12.266-18.92,31.71-32.77,54.445-37.669c2.096-5.906,3.248-12.255,3.248-18.87C240.992,320.731,215.616,295.356,184.425,295.356z
			"/>
		<path d="M327.575,295.356c-31.191,0-56.567,25.375-56.567,56.566c0,6.615,1.152,12.964,3.248,18.87
			c22.735,4.899,42.179,18.749,54.445,37.669c30.671-0.604,55.44-25.725,55.44-56.539
			C384.141,320.732,358.766,295.356,327.575,295.356z"/>
	
		<path d="M256,398.865c-31.191,0-56.567,25.376-56.567,56.567s25.376,56.567,56.567,56.567s56.567-25.376,56.567-56.567
			C312.567,424.241,287.191,398.865,256,398.865z"/>
</svg>
