<svg xmlns="http://www.w3.org/2000/svg" viewBox="0 0 100 100"><path d="M36.688,80.017V78.929h1.4s.023,4.71.014,6.877a5.681,5.681,0,0,1-.1,1.016,2.769,2.769,0,0,1-1.768,2.132,6.368,6.368,0,0,1-2.421.41c-.267,0-.817-.033-.817-.033V88.285s.322,0,.48,0a8.174,8.174,0,0,0,1.2-.051,2.232,2.232,0,0,0,1.9-2.15c.027-.313,0-.63,0-.991-.08.05-.878,1.189-3.375,1.073A3.376,3.376,0,0,1,31.95,85.8a3.2,3.2,0,0,1-1.693-2.271,4.078,4.078,0,0,1,.451-3,3.368,3.368,0,0,1,2.852-1.748,4.821,4.821,0,0,1,1.509.109A3.4,3.4,0,0,1,36.688,80.017Zm-2.515-.195a2.084,2.084,0,0,0-1.88.993,3.06,3.06,0,0,0-.448,2.4,2.3,2.3,0,0,0,2.223,1.918,2.374,2.374,0,0,0,2.409-1.754,3.147,3.147,0,0,0-.163-2.108A2.216,2.216,0,0,0,34.173,79.822Z"/><path d="M57.952,82.864H52.035a1.909,1.909,0,0,0,.36,1.257,2.711,2.711,0,0,0,2.119,1.169,5.114,5.114,0,0,0,2.495-.519c.085-.038.379-.183.379-.183s-.065.873-.065,1.3a5.717,5.717,0,0,1-1.582.415,7.045,7.045,0,0,1-2.765-.162,3.384,3.384,0,0,1-2.547-3.081,4.657,4.657,0,0,1,.041-1.405,3.385,3.385,0,0,1,2.5-2.7,4.871,4.871,0,0,1,2.514-.057,2.91,2.91,0,0,1,2.231,2.044A5.117,5.117,0,0,1,57.952,82.864Zm-1.5-1.005a2.175,2.175,0,0,0-1.833-2.017,3.524,3.524,0,0,0-.7,0,2.111,2.111,0,0,0-1.922,2.016S56.449,81.9,56.447,81.859Z"/><path d="M70.026,78.724a7.5,7.5,0,0,1,2.1.474,3.681,3.681,0,0,1,.678,6.278,4.293,4.293,0,0,1-2.35.867,4.834,4.834,0,0,1-2.544-.444,3.692,3.692,0,0,1-1.844-4.833C67.082,78.541,70.026,78.724,70.026,78.724ZM70,85.3a2.433,2.433,0,0,0,2.4-1.526,3.065,3.065,0,0,0,.152-1.939,2.607,2.607,0,0,0-5.036-.162,3.156,3.156,0,0,0-.123,1.186A2.528,2.528,0,0,0,70,85.3Z"/><path d="M83.133,86.178H81.638s0-2.73-.024-3.907a5.514,5.514,0,0,0-.151-1.221,1.517,1.517,0,0,0-1.532-1.22,2.335,2.335,0,0,0-2.569,2.135,6.692,6.692,0,0,0-.072.949c-.01.954,0,3.263,0,3.263h-1.47l-.034-7.232s1.151-.016,1.428-.016v1.122a3.254,3.254,0,0,1,2.3-1.247,5.423,5.423,0,0,1,1.439.057,2.441,2.441,0,0,1,2.115,2.119,4.754,4.754,0,0,1,.078.807C83.154,83.153,83.133,86.178,83.133,86.178Z"/><path d="M48.287,86.183H46.76L46.752,82.3a10.21,10.21,0,0,0-.133-1.154,1.552,1.552,0,0,0-1.638-1.314,2.251,2.251,0,0,0-2.4,1.772,4.94,4.94,0,0,0-.151,1.149c-.021,1-.009,3.26-.009,3.437-.259,0-1.232.013-1.5.013V78.956h1.432v1.092a3.038,3.038,0,0,1,2.268-1.241,5.259,5.259,0,0,1,1.439.05,2.473,2.473,0,0,1,2.168,2.308,8.028,8.028,0,0,1,.056.916C48.29,83.318,48.287,86.183,48.287,86.183Z"/><path d="M21.653,86.188H19.824l-2.975-7.234h1.66l2.241,5.884.074.005,2.3-5.9h1.51Z"/><path d="M64.116,88.922h.932l.021,6.943h-.894l-.031-.586a3.215,3.215,0,0,1-3,.489,1.982,1.982,0,0,1-.908-.908,3.006,3.006,0,0,1-.209-2.231,2.185,2.185,0,0,1,2.415-1.58,2.286,2.286,0,0,1,1.665.719C64.122,91.264,64.116,88.922,64.116,88.922Zm-3.173,4.527a2.3,2.3,0,0,0,.253,1.059,1.5,1.5,0,0,0,2.553.191,2.079,2.079,0,0,0-.005-2.354,1.515,1.515,0,0,0-1.595-.585,1.377,1.377,0,0,0-1.119,1.133C60.984,93.074,60.971,93.264,60.943,93.449Z"/><path d="M31.12,88.924h.917l.012,6.948h-.881l-.019-.574a2.882,2.882,0,0,1-2.6.618,1.965,1.965,0,0,1-1.357-1.145,2.994,2.994,0,0,1-.18-2.1,2.195,2.195,0,0,1,2.423-1.622,2.137,2.137,0,0,1,1.655.769Zm-3.192,4.524a2.314,2.314,0,0,0,.275,1.09,1.5,1.5,0,0,0,2.537.162,2.072,2.072,0,0,0,0-2.354,1.513,1.513,0,0,0-1.562-.593,1.382,1.382,0,0,0-1.149,1.105A5.26,5.26,0,0,0,27.928,93.448Z"/><path d="M40.366,91.177h.913l.036.6a2.618,2.618,0,0,1,3.156-.408,2.218,2.218,0,0,1,1.058,1.783,3,3,0,0,1-.222,1.522A2.212,2.212,0,0,1,42.894,96a2.84,2.84,0,0,1-1.557-.757l0,2.59h-.967Zm4.153,2.3a5.549,5.549,0,0,0-.114-.658,1.378,1.378,0,0,0-1.138-1.072,1.517,1.517,0,0,0-1.517.542,2.058,2.058,0,0,0,0,2.464,1.494,1.494,0,0,0,2.491-.222A2.4,2.4,0,0,0,44.519,93.481Z"/><path d="M61.524,86.18h-1.5V78.929h1.388l.039,1.137a2.73,2.73,0,0,1,1.7-1.239,3.406,3.406,0,0,1,1.491.038v1.12a2.327,2.327,0,0,0-2.812,1.289,3.9,3.9,0,0,0-.3,1.55C61.523,83.8,61.524,86.18,61.524,86.18Z"/><path d="M67.416,92.169s0-.471,0-.7a3.755,3.755,0,0,1,2.832-.267,1.515,1.515,0,0,1,1.1,1.52c.025.552.013,3.152.013,3.152h-.851l-.065-.551a2.411,2.411,0,0,1-1.4.671,2.909,2.909,0,0,1-1.454-.187,1.326,1.326,0,0,1-.164-2.386A3.186,3.186,0,0,1,68.9,93c.364-.02,1.322-.008,1.433-.008a1,1,0,0,0-.836-1.218A3.077,3.077,0,0,0,67.416,92.169Zm2.92,1.462a5.561,5.561,0,0,0-1.659.088,1.874,1.874,0,0,0-.574.255.658.658,0,0,0-.011,1.1,1.13,1.13,0,0,0,.276.153A1.415,1.415,0,0,0,70.336,93.631Z"/><path d="M38.263,94.916V95.7a4.268,4.268,0,0,1-2.768.178,2.175,2.175,0,0,1-1.717-1.923,3.479,3.479,0,0,1,.013-1.019,2.246,2.246,0,0,1,1.9-1.839,3.352,3.352,0,0,1,1.5.066,1.852,1.852,0,0,1,1.238,1.071,3.14,3.14,0,0,1,.257,1.46l-3.867.008a1.642,1.642,0,0,0,0,.33,1.566,1.566,0,0,0,.916,1.1,2.228,2.228,0,0,0,1.586.094C37.632,95.139,37.928,95.027,38.263,94.916Zm-.634-1.861A1.272,1.272,0,0,0,36.31,91.72a1.379,1.379,0,0,0-1.478,1.335Z"/><path d="M51.351,94.95V95.7A4.654,4.654,0,0,1,49.282,96a4.227,4.227,0,0,1-.66-.109,2.2,2.2,0,0,1-1.773-2.066,3.268,3.268,0,0,1,.015-.809,2.268,2.268,0,0,1,2.013-1.929,3.43,3.43,0,0,1,1.4.079,1.838,1.838,0,0,1,1.256,1.1,2.852,2.852,0,0,1,.224,1.445H47.884a1.4,1.4,0,0,0,.422,1.053,1.872,1.872,0,0,0,1.683.536C50.436,95.222,50.871,95.074,51.351,94.95Zm-.638-1.894A1.267,1.267,0,0,0,49.4,91.72a1.385,1.385,0,0,0-1.485,1.336Z"/><path d="M21.392,91.837c.068-.04.745-1.308,2.856-.6a1.712,1.712,0,0,1,1,1.618c.018.234.008,3.019.008,3.019h-.984s.008-1.748,0-2.431a4.146,4.146,0,0,0-.09-.84,1.025,1.025,0,0,0-1.083-.875,1.452,1.452,0,0,0-1.518,1.028,3.247,3.247,0,0,0-.142.865c-.022.623-.008,2.243-.008,2.243l-.98.025V91.155h.915Z"/><path d="M53.474,91.168h.9v.675a2.591,2.591,0,0,1,1.928-.8,2.651,2.651,0,0,1,.595.07,1.631,1.631,0,0,1,1.35,1.673c.047,1-.031,3.084-.031,3.084h-.908c-.007-.132-.013-1.7-.022-2.375a5.256,5.256,0,0,0-.063-.773,1.108,1.108,0,0,0-1.374-.984,1.539,1.539,0,0,0-1.391,1.569c-.035.54-.023,2.232-.023,2.56h-.939Z"/><polygon points="26.329 78.948 27.78 78.948 27.78 86.172 26.341 86.172 26.329 78.948"/><path d="M74.32,95.877h-.94V91.194l.917-.022.036.673a1.946,1.946,0,0,1,1.905-.8,2.9,2.9,0,0,1,.627.084,1.589,1.589,0,0,1,1.262,1.359,2.489,2.489,0,0,1,.053.455c0,.941-.028,2.915-.028,2.915s-.586.031-.927.019c-.008-.144-.04-2.061-.054-2.885a2.086,2.086,0,0,0-.057-.382,1.084,1.084,0,0,0-1.285-.88,1.527,1.527,0,0,0-1.435,1.409,5.15,5.15,0,0,0-.053.7C74.333,94.4,74.327,95.733,74.32,95.877Z"/><path d="M81.641,89.769V91.15h1.42v.687h-1.4s-.028,2.55-.026,2.6a.858.858,0,0,0,1.092.87c.136-.024.42-.1.42-.1v.665a2.481,2.481,0,0,1-1.822-.054,1.049,1.049,0,0,1-.637-.832,3.447,3.447,0,0,1-.043-.527c0-.729,0-2.605,0-2.605H79.441v-.693h1.2v-1.1Z"/><path d="M17.317,91.17h.935v4.7l-.935-.009Z"/><polygon points="27.799 77.544 26.303 77.544 26.303 76.13 27.799 76.109 27.799 77.544"/><path d="M18.327,89.122v.924H17.256v-.924Z"/><path d="M65.238,19.345a19.837,19.837,0,0,1-1.545,3,7.108,7.108,0,0,1-11.639-.313c-.166-.241-.412-.559-.655-.591a11.983,11.983,0,0,0-2.535-.138,6.248,6.248,0,0,0-4.248,2.583,25.675,25.675,0,0,0-4.5,9.01,65.586,65.586,0,0,0-2.569,12.815,82.794,82.794,0,0,0-.509,12.345,1.155,1.155,0,0,0,.421.82,19.953,19.953,0,0,0,3.029,1.71,22.107,22.107,0,0,0,11.169,1.174,16.127,16.127,0,0,0,7.095-2.483,1.922,1.922,0,0,0,.987-1.746,97.12,97.12,0,0,0-1.422-18,40.54,40.54,0,0,0-2.239-8.553c-.115-.276-.216-.557-.351-.907.421,0,.732,0,1.044,0a9.078,9.078,0,0,0,8.779-6.453C66.02,22.1,66.17,20.611,65.238,19.345ZM54.55,2.918a5.643,5.643,0,0,0-.8-.239c-1.374-.177-2.747-.423-4.128-.485a19.516,19.516,0,0,0-9.966,1.96c-7.193,3.678-8.585,12.3-2.842,17.749a13.2,13.2,0,0,0,5.072,2.92l.754-1.176a11.89,11.89,0,0,1-6.3-4.528,31.988,31.988,0,0,0,14.131-.256l-.266-1.222c-2.025.235-3.931.508-5.847.668a22.61,22.61,0,0,1-8.433-.869c-.277-.083-.653-.254-.742-.479a7.028,7.028,0,0,1-.461-3.459c.313.032.576.053.837.089a60.279,60.279,0,0,0,13.48.054c.365-.033.52-.184.479-.554-.03-.279-.031-.562-.047-.9a56.338,56.338,0,0,1-14.608-.124c.175-.538.32-.981.463-1.424a2.763,2.763,0,0,1,2.4-2.189c.464-.053.912-.224,1.372-.318a36.005,36.005,0,0,1,10.167-.529c1.176.094,1.179.067,1.679-1.011.015-.034-.005-.084-.014-.211a41.506,41.506,0,0,0-12.561.332A16.188,16.188,0,0,1,41,5.092a19.524,19.524,0,0,1,11.12-1.284C53.174,3.953,53.714,3.391,54.55,2.918ZM63.5,18.073a5.478,5.478,0,0,0-5.513-5.557,5.52,5.52,0,1,0,.148,11.039A5.446,5.446,0,0,0,63.5,18.073ZM51.453,14.946a7.392,7.392,0,0,1,11.24-2.431c-.053-.566-.076-1.071-.15-1.568A9.306,9.306,0,0,0,60.138,5.59a4.156,4.156,0,0,0-6.255-.1C51.259,8.162,50.966,11.472,51.453,14.946ZM62.675,62.254a9.55,9.55,0,0,1-8.806,3.16l-.4,1.619A11.237,11.237,0,0,0,63.912,63.4ZM35.768,63.485c1.422,3.394,3.431,6.077,6.948,7.415.092-.22.151-.339.193-.463.121-.356.235-.713.364-1.108-3.008-1.173-4.69-3.561-5.929-6.38Z"/><path d="M65.238,19.345c.932,1.266.782,2.754.31,4.276a9.078,9.078,0,0,1-8.779,6.453c-.312,0-.623,0-1.044,0,.135.35.236.631.351.907a40.54,40.54,0,0,1,2.239,8.553,97.12,97.12,0,0,1,1.422,18,1.922,1.922,0,0,1-.987,1.746,16.127,16.127,0,0,1-7.095,2.483,22.107,22.107,0,0,1-11.169-1.174,19.953,19.953,0,0,1-3.029-1.71,1.155,1.155,0,0,1-.421-.82,82.794,82.794,0,0,1,.509-12.345,65.586,65.586,0,0,1,2.569-12.815,25.675,25.675,0,0,1,4.5-9.01A6.248,6.248,0,0,1,48.864,21.3a11.983,11.983,0,0,1,2.535.138c.243.032.489.35.655.591a7.108,7.108,0,0,0,11.639.313A19.837,19.837,0,0,0,65.238,19.345Z"/><path d="M54.55,2.918c-.836.473-1.376,1.035-2.427.89A19.524,19.524,0,0,0,41,5.092a16.188,16.188,0,0,0-2.637,1.627,41.506,41.506,0,0,1,12.561-.332c.009.127.029.177.014.211-.5,1.078-.5,1.105-1.679,1.011A36.005,36.005,0,0,0,39.1,8.138c-.46.094-.908.265-1.372.318a2.763,2.763,0,0,0-2.4,2.189c-.143.443-.288.886-.463,1.424a56.338,56.338,0,0,0,14.608.124c.016.336.017.619.047.9.041.37-.114.521-.479.554a60.279,60.279,0,0,1-13.48-.054c-.261-.036-.524-.057-.837-.089a7.028,7.028,0,0,0,.461,3.459c.089.225.465.4.742.479a22.61,22.61,0,0,0,8.433.869c1.916-.16,3.822-.433,5.847-.668l.266,1.222a31.988,31.988,0,0,1-14.131.256,11.89,11.89,0,0,0,6.3,4.528l-.754,1.176a13.2,13.2,0,0,1-5.072-2.92C31.075,16.45,32.467,7.832,39.66,4.154a19.516,19.516,0,0,1,9.966-1.96c1.381.062,2.754.308,4.128.485A5.643,5.643,0,0,1,54.55,2.918Z"/><path d="M63.5,18.073a5.446,5.446,0,0,1-5.365,5.482A5.521,5.521,0,1,1,63.5,18.073Z"/><path d="M51.453,14.946c-.487-3.474-.194-6.784,2.43-9.456a4.156,4.156,0,0,1,6.255.1,9.306,9.306,0,0,1,2.405,5.357c.074.5.1,1,.15,1.568A7.392,7.392,0,0,0,51.453,14.946Z"/><path d="M62.675,62.254,63.912,63.4a11.237,11.237,0,0,1-10.438,3.633l.4-1.619A9.55,9.55,0,0,0,62.675,62.254Z"/><path d="M35.768,63.485l1.576-.536c1.239,2.819,2.921,5.207,5.929,6.38-.129.4-.243.752-.364,1.108-.042.124-.1.243-.193.463C39.2,69.562,37.19,66.879,35.768,63.485Z"/></svg>